<?xml version="1.0" encoding="UTF-8" standalone="no"?>
<!-- Created with Inkscape (http://www.inkscape.org/) -->

<svg
   width="258.74036mm"
   height="152.68532mm"
   viewBox="0 0 258.74036 152.68532"
   version="1.1"
   id="SVGRoot"
   xmlns="http://www.w3.org/2000/svg"
   xmlns:svg="http://www.w3.org/2000/svg">
  <defs
     id="defs264" />
  <g
     id="layer1"
     transform="translate(-19.129825,-28.657338)">
    <path
       id="path365"
       style="fill:#000000;stroke-width:1.79083"
       d="m 120.80272,28.658009 c -8.0665,-0.15197 -59.697098,25.5941 -59.807708,30.52527 -0.0195,0.86893 5.23006,1.57975 11.66544,1.57975 9.28835,0 12.34856,-0.81154 14.84354,-3.93516 4.62975,-5.79629 23.297708,-20.83454 29.220428,-23.53913 2.82293,-1.28907 5.13302,-3.09161 5.13302,-4.00545 0,-0.41329 -0.3711,-0.6124 -1.05472,-0.62528 z m 59.9767,1.64228 c -2.4877,-0.17632 0.70303,2.79637 8.99429,8.97929 16.5596,12.34875 25.16146,20.36491 36.13578,33.67495 17.9998,21.83082 21.07062,32.999221 12.96613,47.157841 l -4.61367,8.05946 h 13.59348 13.59297 l 8.67958,-11.63185 c 4.77368,-6.39748 8.2321,-12.63375 7.68532,-13.85807 -1.99483,-4.465981 -14.9291,-20.029101 -24.04712,-28.934671 -13.31789,-13.00761 -35.8991,-28.27869 -52.742,-35.6681 -11.4335,-5.01622 -18.04964,-7.62328 -20.24476,-7.77885 z m -31.51848,36.74039 c -14.07148,0 -42.53214,6.03739 -48.1118,10.20609 -7.559788,5.64811 -18.774858,16.05208 -18.827258,17.4656 -0.0448,1.20876 6.34768,-0.73888 25.072358,-7.63984 4.18668,-1.54299 10.52371,-3.26421 14.08234,-3.82457 l 6.47041,-1.01855 v 9.48056 c 0,2.08107 0.12439,4.03299 0.34468,5.89163 0.0292,-9.6e-4 0.0566,-0.004 0.0863,-0.004 1.68645,-0.028 3.3731,-0.0571 5.05964,-0.0791 1.22566,-0.0118 2.45159,-0.0138 3.6773,-0.0134 1.2257,4e-4 2.45109,0.003 3.67677,0.001 h 6.8399 6.50399 5.88388 5.1847 4.50515 0.54157 c 0.21042,-1.82821 0.32453,-3.75167 0.32453,-5.79603 v -9.48055 l 6.4704,1.01854 c 3.55871,0.56036 9.89564,2.28158 14.08235,3.82457 18.72469,6.90096 25.11717,8.8486 25.07237,7.63984 -0.0524,-1.41352 -11.26741,-11.81749 -18.82728,-17.4656 -5.57962,-4.16869 -34.04092,-10.20609 -48.1123,-10.20609 z m -113.709328,14.78773 -8.67958,11.63184 c -4.77372,6.39747 -8.232181,12.633751 -7.685321,13.858071 1.994811,4.46598 14.929071,20.0291 24.047111,28.93467 17.2859,16.88307 47.47157,35.38849 70.249968,43.06714 7.99406,2.69485 6.519,0.6313 -6.2575,-8.75399 C 90.820252,158.51462 82.194882,150.51341 71.090522,137.04571 53.090692,115.21485 50.019882,104.04648 58.124392,89.887859 l 4.61315,-8.05945 h -13.59297 z m 43.42422,15.63573 c -0.55438,-0.0267 -1.05345,0.0682 -1.51826,0.27234 l -3.32279,1.45934 3.33778,2.471171 c 1.83555,1.35925 5.46845,6.04938 8.07341,10.4221 8.1713,13.71643 20.783678,22.25764 40.878628,27.6841 19.84534,5.35893 42.95909,3.15509 61.65877,-5.87923 11.91489,-5.75639 19.06182,-12.01657 24.89306,-21.80487 2.60488,-4.37272 6.23792,-9.06285 8.0734,-10.4221 l 3.33779,-2.471171 -3.3228,-1.45934 c -2.479,-1.08865 -5.92868,0.92817 -13.5847,7.942151 -21.79876,19.97063 -36.48298,26.70638 -58.21918,26.70638 -21.73631,0 -36.41991,-6.73575 -58.218668,-26.70638 -6.22052,-5.698861 -9.66413,-8.098811 -12.06644,-8.214491 z m 73.512298,22.572781 c -0.0383,0.0201 -0.0789,0.0386 -0.12144,0.0558 0.0431,-0.006 0.0862,-0.0124 0.12919,-0.0191 -0.002,-0.0114 -0.005,-0.025 -0.008,-0.0367 z m 71.85143,29.20029 c -9.28834,0 -12.34853,0.81149 -14.84354,3.93516 -4.62979,5.79624 -23.29819,20.83503 -29.22096,23.53965 -2.82283,1.28908 -5.1325,3.09108 -5.1325,4.00492 0,5.29018 60.74246,-24.55044 60.86243,-29.89946 0.0195,-0.86894 -5.23009,-1.58027 -11.66543,-1.58027 z" />
    <circle
       style="fill:#000000;stroke-width:0.264583"
       id="path583"
       cx="148.5"
       cy="97.062531"
       r="27.876211" />
  </g>
</svg>
