<?xml version="1.0" standalone="no"?>
<!DOCTYPE svg PUBLIC "-//W3C//DTD SVG 20010904//EN"
 "http://www.w3.org/TR/2001/REC-SVG-20010904/DTD/svg10.dtd">
<svg version="1.0" xmlns="http://www.w3.org/2000/svg"
 width="1125.000000pt" height="1125.000000pt" viewBox="0 0 1125.000000 1125.000000"
 preserveAspectRatio="xMidYMid meet">

<g transform="translate(0.000000,1125.000000) scale(0.100000,-0.100000)"
fill="#000000" stroke="none">
<path d="M500 9875 l0 -875 875 0 875 0 0 875 0 875 -875 0 -875 0 0 -875z
m1490 0 l0 -615 -615 0 -615 0 0 615 0 615 615 0 615 0 0 -615z"/>
<path d="M1000 9875 l0 -375 375 0 375 0 0 375 0 375 -375 0 -375 0 0 -375z"/>
<path d="M2500 10375 l0 -375 125 0 125 0 0 -125 0 -125 -125 0 -125 0 0 -125
0 -125 500 0 500 0 0 125 0 125 125 0 125 0 0 -250 0 -250 -125 0 -125 0 0
-375 0 -375 -125 0 -125 0 0 375 0 375 -125 0 -125 0 0 -500 0 -500 -125 0
-125 0 0 250 0 250 -750 0 -750 0 0 -125 0 -125 -250 0 -250 0 0 125 0 125
-125 0 -125 0 0 -250 0 -250 375 0 375 0 0 -250 0 -250 250 0 250 0 0 -250 0
-250 125 0 125 0 0 -125 0 -125 125 0 125 0 0 -125 0 -125 -125 0 -125 0 0
-125 0 -125 250 0 250 0 0 125 0 125 125 0 125 0 0 125 0 125 125 0 125 0 0
-250 0 -250 250 0 250 0 0 -125 0 -125 -125 0 -125 0 0 -125 0 -125 -125 0
-125 0 0 125 0 125 -500 0 -500 0 0 -125 0 -125 -125 0 -125 0 0 -125 0 -125
-125 0 -125 0 0 -125 0 -125 375 0 375 0 0 -125 0 -125 -125 0 -125 0 0 -125
0 -125 -250 0 -250 0 0 -125 0 -125 -250 0 -250 0 0 -125 0 -125 -250 0 -250
0 0 -125 0 -125 625 0 625 0 0 -125 0 -125 -625 0 -625 0 0 -750 0 -750 250 0
250 0 0 375 0 375 250 0 250 0 0 -125 0 -125 -125 0 -125 0 0 -250 0 -250 125
0 125 0 0 250 0 250 125 0 125 0 0 -125 0 -125 125 0 125 0 0 -125 0 -125 250
0 250 0 0 -625 0 -625 125 0 125 0 0 375 0 375 125 0 125 0 0 -250 0 -250 125
0 125 0 0 -125 0 -125 -125 0 -125 0 0 -125 0 -125 -125 0 -125 0 0 -125 0
-125 -125 0 -125 0 0 -125 0 -125 250 0 250 0 0 125 0 125 125 0 125 0 0 125
0 125 125 0 125 0 0 -125 0 -125 125 0 125 0 0 -125 0 -125 375 0 375 0 0 125
0 125 125 0 125 0 0 -125 0 -125 375 0 375 0 0 125 0 125 -125 0 -125 0 0 125
0 125 375 0 375 0 0 125 0 125 -500 0 -500 0 0 125 0 125 500 0 500 0 0 125 0
125 250 0 250 0 0 -125 0 -125 -125 0 -125 0 0 -125 0 -125 125 0 125 0 0
-125 0 -125 -125 0 -125 0 0 -125 0 -125 -125 0 -125 0 0 -125 0 -125 250 0
250 0 0 125 0 125 125 0 125 0 0 -125 0 -125 375 0 375 0 0 125 0 125 125 0
125 0 0 125 0 125 125 0 125 0 0 125 0 125 125 0 125 0 0 125 0 125 875 0 875
0 0 250 0 250 -125 0 -125 0 0 125 0 125 125 0 125 0 0 125 0 125 125 0 125 0
0 -125 0 -125 125 0 125 0 0 125 0 125 -125 0 -125 0 0 125 0 125 250 0 250 0
0 250 0 250 -125 0 -125 0 0 125 0 125 125 0 125 0 0 125 0 125 -125 0 -125 0
0 -125 0 -125 -125 0 -125 0 0 -125 0 -125 -250 0 -250 0 0 125 0 125 -250 0
-250 0 0 -125 0 -125 -125 0 -125 0 0 125 0 125 -125 0 -125 0 0 125 0 125
750 0 750 0 0 250 0 250 125 0 125 0 0 -125 0 -125 125 0 125 0 0 500 0 500
-125 0 -125 0 0 -125 0 -125 -125 0 -125 0 0 -125 0 -125 -125 0 -125 0 0 375
0 375 125 0 125 0 0 500 0 500 125 0 125 0 0 -125 0 -125 125 0 125 0 0 125 0
125 -125 0 -125 0 0 250 0 250 -125 0 -125 0 0 125 0 125 -125 0 -125 0 0 125
0 125 125 0 125 0 0 125 0 125 -125 0 -125 0 0 -125 0 -125 -125 0 -125 0 0
125 0 125 -125 0 -125 0 0 125 0 125 -250 0 -250 0 0 -375 0 -375 -125 0 -125
0 0 125 0 125 -250 0 -250 0 0 125 0 125 -125 0 -125 0 0 -125 0 -125 -125 0
-125 0 0 250 0 250 125 0 125 0 0 125 0 125 125 0 125 0 0 -125 0 -125 250 0
250 0 0 125 0 125 -250 0 -250 0 0 125 0 125 250 0 250 0 0 125 0 125 125 0
125 0 0 125 0 125 -125 0 -125 0 0 250 0 250 -125 0 -125 0 0 -125 0 -125
-125 0 -125 0 0 125 0 125 -125 0 -125 0 0 -125 0 -125 125 0 125 0 0 -125 0
-125 250 0 250 0 0 -125 0 -125 -375 0 -375 0 0 125 0 125 -125 0 -125 0 0
250 0 250 -125 0 -125 0 0 -250 0 -250 -250 0 -250 0 0 125 0 125 125 0 125 0
0 375 0 375 -125 0 -125 0 0 125 0 125 250 0 250 0 0 -125 0 -125 250 0 250 0
0 -125 0 -125 250 0 250 0 0 125 0 125 125 0 125 0 0 250 0 250 -125 0 -125 0
0 125 0 125 125 0 125 0 0 125 0 125 -125 0 -125 0 0 -125 0 -125 -125 0 -125
0 0 125 0 125 -375 0 -375 0 0 -125 0 -125 125 0 125 0 0 -125 0 -125 125 0
125 0 0 -125 0 -125 -250 0 -250 0 0 125 0 125 -125 0 -125 0 0 125 0 125
-125 0 -125 0 0 125 0 125 -125 0 -125 0 0 -125 0 -125 125 0 125 0 0 -125 0
-125 -125 0 -125 0 0 -250 0 -250 125 0 125 0 0 -375 0 -375 -125 0 -125 0 0
250 0 250 -375 0 -375 0 0 125 0 125 -125 0 -125 0 0 125 0 125 -125 0 -125 0
0 -125 0 -125 -125 0 -125 0 0 125 0 125 -125 0 -125 0 0 -125 0 -125 125 0
125 0 0 -125 0 -125 125 0 125 0 0 125 0 125 125 0 125 0 0 -125 0 -125 125 0
125 0 0 -375 0 -375 125 0 125 0 0 -250 0 -250 -375 0 -375 0 0 125 0 125
-125 0 -125 0 0 375 0 375 -125 0 -125 0 0 125 0 125 -125 0 -125 0 0 -125 0
-125 -125 0 -125 0 0 250 0 250 125 0 125 0 0 375 0 375 125 0 125 0 0 -125 0
-125 250 0 250 0 0 125 0 125 -250 0 -250 0 0 125 0 125 -125 0 -125 0 0 -125
0 -125 -125 0 -125 0 0 -125 0 -125 -125 0 -125 0 0 -125 0 -125 -125 0 -125
0 0 250 0 250 125 0 125 0 0 125 0 125 -125 0 -125 0 0 -125 0 -125 -375 0
-375 0 0 125 0 125 -125 0 -125 0 0 -125 0 -125 125 0 125 0 0 -125 0 -125
250 0 250 0 0 -125 0 -125 -125 0 -125 0 0 -125 0 -125 -250 0 -250 0 0 250 0
250 -125 0 -125 0 0 250 0 250 -125 0 -125 0 0 -375z m6000 -250 l0 -125 -125
0 -125 0 0 -125 0 -125 -125 0 -125 0 0 125 0 125 125 0 125 0 0 125 0 125
125 0 125 0 0 -125z m-4000 -250 l0 -125 -125 0 -125 0 0 125 0 125 125 0 125
0 0 -125z m-500 -750 l0 -125 -125 0 -125 0 0 125 0 125 125 0 125 0 0 -125z
m500 0 l0 -125 -125 0 -125 0 0 125 0 125 125 0 125 0 0 -125z m500 -125 l0
-250 -125 0 -125 0 0 250 0 250 125 0 125 0 0 -250z m1500 125 l0 -125 125 0
125 0 0 -125 0 -125 125 0 125 0 0 -125 0 -125 -125 0 -125 0 0 -125 0 -125
-125 0 -125 0 0 125 0 125 125 0 125 0 0 125 0 125 -125 0 -125 0 0 125 0 125
-125 0 -125 0 0 125 0 125 125 0 125 0 0 -125z m-2000 -500 l0 -125 -250 0
-250 0 0 125 0 125 250 0 250 0 0 -125z m-3000 -250 l0 -125 125 0 125 0 0
-125 0 -125 250 0 250 0 0 125 0 125 -125 0 -125 0 0 125 0 125 250 0 250 0 0
-125 0 -125 125 0 125 0 0 -250 0 -250 125 0 125 0 0 125 0 125 125 0 125 0 0
-125 0 -125 250 0 250 0 0 250 0 250 375 0 375 0 0 -125 0 -125 125 0 125 0 0
-125 0 -125 125 0 125 0 0 125 0 125 125 0 125 0 0 125 0 125 -125 0 -125 0 0
125 0 125 125 0 125 0 0 -125 0 -125 125 0 125 0 0 -125 0 -125 500 0 500 0 0
-125 0 -125 125 0 125 0 0 125 0 125 125 0 125 0 0 125 0 125 125 0 125 0 0
-250 0 -250 125 0 125 0 0 375 0 375 250 0 250 0 0 -125 0 -125 -125 0 -125 0
0 -250 0 -250 -125 0 -125 0 0 -125 0 -125 -250 0 -250 0 0 -125 0 -125 -125
0 -125 0 0 -125 0 -125 250 0 250 0 0 -125 0 -125 125 0 125 0 0 125 0 125
250 0 250 0 0 125 0 125 125 0 125 0 0 -125 0 -125 -125 0 -125 0 0 -125 0
-125 125 0 125 0 0 -125 0 -125 -125 0 -125 0 0 -125 0 -125 -125 0 -125 0 0
-125 0 -125 250 0 250 0 0 -125 0 -125 125 0 125 0 0 375 0 375 125 0 125 0 0
125 0 125 -125 0 -125 0 0 125 0 125 125 0 125 0 0 -125 0 -125 250 0 250 0 0
375 0 375 125 0 125 0 0 -125 0 -125 125 0 125 0 0 -375 0 -375 125 0 125 0 0
125 0 125 125 0 125 0 0 -125 0 -125 -125 0 -125 0 0 -375 0 -375 -125 0 -125
0 0 -125 0 -125 125 0 125 0 0 -125 0 -125 -125 0 -125 0 0 -375 0 -375 -125
0 -125 0 0 -125 0 -125 125 0 125 0 0 -125 0 -125 -125 0 -125 0 0 125 0 125
-125 0 -125 0 0 -125 0 -125 -125 0 -125 0 0 125 0 125 -125 0 -125 0 0 -125
0 -125 -125 0 -125 0 0 125 0 125 -125 0 -125 0 0 -500 0 -500 -250 0 -250 0
0 -125 0 -125 125 0 125 0 0 -125 0 -125 125 0 125 0 0 -125 0 -125 125 0 125
0 0 -125 0 -125 -125 0 -125 0 0 -125 0 -125 -250 0 -250 0 0 -125 0 -125 250
0 250 0 0 -125 0 -125 -250 0 -250 0 0 125 0 125 -125 0 -125 0 0 -125 0 -125
-125 0 -125 0 0 125 0 125 125 0 125 0 0 125 0 125 125 0 125 0 0 125 0 125
-125 0 -125 0 0 250 0 250 125 0 125 0 0 125 0 125 -125 0 -125 0 0 125 0 125
125 0 125 0 0 125 0 125 -375 0 -375 0 0 -125 0 -125 125 0 125 0 0 -250 0
-250 -125 0 -125 0 0 -125 0 -125 125 0 125 0 0 -250 0 -250 -125 0 -125 0 0
-125 0 -125 -125 0 -125 0 0 250 0 250 -125 0 -125 0 0 125 0 125 125 0 125 0
0 125 0 125 -125 0 -125 0 0 125 0 125 -125 0 -125 0 0 -250 0 -250 -375 0
-375 0 0 125 0 125 125 0 125 0 0 125 0 125 -125 0 -125 0 0 125 0 125 -125 0
-125 0 0 -375 0 -375 -125 0 -125 0 0 -125 0 -125 -250 0 -250 0 0 -375 0
-375 125 0 125 0 0 -125 0 -125 -125 0 -125 0 0 -125 0 -125 -125 0 -125 0 0
-125 0 -125 -125 0 -125 0 0 125 0 125 125 0 125 0 0 125 0 125 -250 0 -250 0
0 -125 0 -125 -125 0 -125 0 0 125 0 125 125 0 125 0 0 125 0 125 -125 0 -125
0 0 125 0 125 -125 0 -125 0 0 250 0 250 250 0 250 0 0 125 0 125 -250 0 -250
0 0 125 0 125 125 0 125 0 0 125 0 125 -375 0 -375 0 0 -250 0 -250 125 0 125
0 0 -125 0 -125 -125 0 -125 0 0 125 0 125 -125 0 -125 0 0 125 0 125 -250 0
-250 0 0 125 0 125 375 0 375 0 0 125 0 125 -375 0 -375 0 0 125 0 125 125 0
125 0 0 125 0 125 -250 0 -250 0 0 125 0 125 250 0 250 0 0 125 0 125 -250 0
-250 0 0 125 0 125 -125 0 -125 0 0 125 0 125 125 0 125 0 0 -125 0 -125 250
0 250 0 0 125 0 125 -125 0 -125 0 0 125 0 125 250 0 250 0 0 125 0 125 125 0
125 0 0 -125 0 -125 125 0 125 0 0 125 0 125 125 0 125 0 0 125 0 125 -250 0
-250 0 0 125 0 125 375 0 375 0 0 250 0 250 125 0 125 0 0 125 0 125 -125 0
-125 0 0 125 0 125 -125 0 -125 0 0 500 0 500 -125 0 -125 0 0 -125 0 -125
-250 0 -250 0 0 -250 0 -250 -125 0 -125 0 0 125 0 125 -125 0 -125 0 0 125 0
125 125 0 125 0 0 125 0 125 -250 0 -250 0 0 125 0 125 -125 0 -125 0 0 125 0
125 -125 0 -125 0 0 125 0 125 125 0 125 0 0 -125z m1000 -2625 l0 -250 -125
0 -125 0 0 125 0 125 -125 0 -125 0 0 125 0 125 250 0 250 0 0 -250z m-1250
-2125 l0 -125 -125 0 -125 0 0 -125 0 -125 -125 0 -125 0 0 250 0 250 250 0
250 0 0 -125z m500 -250 l0 -125 -125 0 -125 0 0 125 0 125 125 0 125 0 0
-125z m8000 -250 l0 -125 125 0 125 0 0 -250 0 -250 -125 0 -125 0 0 250 0
250 -125 0 -125 0 0 -125 0 -125 -125 0 -125 0 0 250 0 250 250 0 250 0 0
-125z m750 0 l0 -125 -125 0 -125 0 0 125 0 125 125 0 125 0 0 -125z m-1750
-250 l0 -125 -125 0 -125 0 0 125 0 125 125 0 125 0 0 -125z m750 -750 l0
-375 -375 0 -375 0 0 375 0 375 375 0 375 0 0 -375z m-3500 0 l0 -125 -250 0
-250 0 0 -125 0 -125 -250 0 -250 0 0 125 0 125 125 0 125 0 0 125 0 125 375
0 375 0 0 -125z m750 -750 l0 -125 -125 0 -125 0 0 125 0 125 125 0 125 0 0
-125z m-1750 -500 l0 -125 -125 0 -125 0 0 125 0 125 125 0 125 0 0 -125z
m2000 0 l0 -125 -125 0 -125 0 0 125 0 125 125 0 125 0 0 -125z m500 0 l0
-125 -125 0 -125 0 0 125 0 125 125 0 125 0 0 -125z"/>
<path d="M4000 7875 l0 -125 -125 0 -125 0 0 -125 0 -125 -125 0 -125 0 0
-125 0 -125 500 0 500 0 0 250 0 250 -125 0 -125 0 0 125 0 125 -125 0 -125 0
0 -125z m250 -250 l0 -125 -125 0 -125 0 0 125 0 125 125 0 125 0 0 -125z"/>
<path d="M5250 7625 l0 -375 -250 0 -250 0 0 -125 0 -125 -125 0 -125 0 0
-125 0 -125 -250 0 -250 0 0 125 0 125 -125 0 -125 0 0 -125 0 -125 125 0 125
0 0 -250 0 -250 -125 0 -125 0 0 -125 0 -125 125 0 125 0 0 125 0 125 125 0
125 0 0 -125 0 -125 125 0 125 0 0 -125 0 -125 -250 0 -250 0 0 -125 0 -125
-250 0 -250 0 0 -125 0 -125 250 0 250 0 0 125 0 125 125 0 125 0 0 -125 0
-125 125 0 125 0 0 -125 0 -125 125 0 125 0 0 -125 0 -125 125 0 125 0 0 250
0 250 250 0 250 0 0 125 0 125 -500 0 -500 0 0 125 0 125 375 0 375 0 0 125 0
125 375 0 375 0 0 -125 0 -125 -125 0 -125 0 0 -125 0 -125 250 0 250 0 0
-250 0 -250 125 0 125 0 0 250 0 250 125 0 125 0 0 125 0 125 125 0 125 0 0
-250 0 -250 -125 0 -125 0 0 -125 0 -125 125 0 125 0 0 -125 0 -125 125 0 125
0 0 125 0 125 125 0 125 0 0 250 0 250 250 0 250 0 0 -250 0 -250 -125 0 -125
0 0 -125 0 -125 -125 0 -125 0 0 -125 0 -125 -125 0 -125 0 0 -375 0 -375 125
0 125 0 0 125 0 125 125 0 125 0 0 125 0 125 250 0 250 0 0 125 0 125 125 0
125 0 0 -125 0 -125 125 0 125 0 0 250 0 250 125 0 125 0 0 -250 0 -250 125 0
125 0 0 125 0 125 125 0 125 0 0 125 0 125 -250 0 -250 0 0 250 0 250 -125 0
-125 0 0 -125 0 -125 -125 0 -125 0 0 -125 0 -125 -125 0 -125 0 0 -125 0
-125 -250 0 -250 0 0 125 0 125 125 0 125 0 0 125 0 125 125 0 125 0 0 125 0
125 125 0 125 0 0 125 0 125 375 0 375 0 0 -125 0 -125 250 0 250 0 0 125 0
125 -250 0 -250 0 0 125 0 125 125 0 125 0 0 250 0 250 125 0 125 0 0 125 0
125 -125 0 -125 0 0 -125 0 -125 -125 0 -125 0 0 -125 0 -125 -250 0 -250 0 0
-125 0 -125 -125 0 -125 0 0 -125 0 -125 -250 0 -250 0 0 125 0 125 -250 0
-250 0 0 375 0 375 125 0 125 0 0 125 0 125 -125 0 -125 0 0 -125 0 -125 -125
0 -125 0 0 -375 0 -375 -125 0 -125 0 0 125 0 125 -250 0 -250 0 0 125 0 125
-125 0 -125 0 0 125 0 125 250 0 250 0 0 -125 0 -125 125 0 125 0 0 250 0 250
-125 0 -125 0 0 125 0 125 -125 0 -125 0 0 -125 0 -125 -125 0 -125 0 0 375 0
375 125 0 125 0 0 -125 0 -125 125 0 125 0 0 125 0 125 -125 0 -125 0 0 125 0
125 -125 0 -125 0 0 -125 0 -125 -125 0 -125 0 0 -125 0 -125 -125 0 -125 0 0
-125 0 -125 125 0 125 0 0 -375 0 -375 -125 0 -125 0 0 250 0 250 -125 0 -125
0 0 125 0 125 -125 0 -125 0 0 125 0 125 125 0 125 0 0 125 0 125 125 0 125 0
0 125 0 125 -125 0 -125 0 0 125 0 125 -125 0 -125 0 0 -375z m-250 -750 l0
-125 125 0 125 0 0 -125 0 -125 -125 0 -125 0 0 -125 0 -125 125 0 125 0 0
-125 0 -125 -375 0 -375 0 0 250 0 250 125 0 125 0 0 250 0 250 125 0 125 0 0
-125z m1500 -1125 l0 -250 -125 0 -125 0 0 250 0 250 125 0 125 0 0 -250z"/>
<path d="M8750 6375 l0 -125 125 0 125 0 0 125 0 125 -125 0 -125 0 0 -125z"/>
<path d="M3000 4875 l0 -125 -125 0 -125 0 0 -375 0 -375 -250 0 -250 0 0
-125 0 -125 250 0 250 0 0 -250 0 -250 375 0 375 0 0 -125 0 -125 250 0 250 0
0 125 0 125 375 0 375 0 0 125 0 125 -500 0 -500 0 0 -125 0 -125 -125 0 -125
0 0 250 0 250 -125 0 -125 0 0 125 0 125 250 0 250 0 0 -125 0 -125 500 0 500
0 0 125 0 125 -250 0 -250 0 0 125 0 125 -125 0 -125 0 0 125 0 125 -250 0
-250 0 0 -125 0 -125 -250 0 -250 0 0 125 0 125 125 0 125 0 0 250 0 250 -125
0 -125 0 0 -125z m1000 -750 l0 -125 -125 0 -125 0 0 125 0 125 125 0 125 0 0
-125z m-1000 -250 l0 -125 125 0 125 0 0 -125 0 -125 -125 0 -125 0 0 125 0
125 -125 0 -125 0 0 125 0 125 125 0 125 0 0 -125z"/>
<path d="M3500 4875 l0 -125 250 0 250 0 0 125 0 125 -250 0 -250 0 0 -125z"/>
<path d="M5250 4875 l0 -125 250 0 250 0 0 125 0 125 -250 0 -250 0 0 -125z"/>
<path d="M6500 4625 l0 -125 -125 0 -125 0 0 -125 0 -125 -125 0 -125 0 0
-125 0 -125 125 0 125 0 0 -125 0 -125 -125 0 -125 0 0 -125 0 -125 -125 0
-125 0 0 -250 0 -250 125 0 125 0 0 125 0 125 250 0 250 0 0 -125 0 -125 125
0 125 0 0 -125 0 -125 125 0 125 0 0 250 0 250 -250 0 -250 0 0 125 0 125 250
0 250 0 0 125 0 125 -250 0 -250 0 0 125 0 125 -125 0 -125 0 0 125 0 125 125
0 125 0 0 125 0 125 125 0 125 0 0 -125 0 -125 125 0 125 0 0 125 0 125 -125
0 -125 0 0 125 0 125 -125 0 -125 0 0 -125z m0 -1000 l0 -125 -125 0 -125 0 0
125 0 125 125 0 125 0 0 -125z"/>
<path d="M5000 4375 l0 -125 125 0 125 0 0 -125 0 -125 -125 0 -125 0 0 -125
0 -125 125 0 125 0 0 125 0 125 250 0 250 0 0 125 0 125 -250 0 -250 0 0 125
0 125 -125 0 -125 0 0 -125z"/>
<path d="M5000 3375 l0 -125 125 0 125 0 0 125 0 125 -125 0 -125 0 0 -125z"/>
<path d="M4250 2750 l0 -250 -125 0 -125 0 0 125 0 125 -125 0 -125 0 0 -125
0 -125 125 0 125 0 0 -125 0 -125 -125 0 -125 0 0 -125 0 -125 125 0 125 0 0
-250 0 -250 125 0 125 0 0 -125 0 -125 125 0 125 0 0 125 0 125 -125 0 -125 0
0 500 0 500 125 0 125 0 0 125 0 125 125 0 125 0 0 -125 0 -125 125 0 125 0 0
125 0 125 -125 0 -125 0 0 125 0 125 -250 0 -250 0 0 -250z"/>
<path d="M7750 2500 l0 -250 250 0 250 0 0 125 0 125 -125 0 -125 0 0 125 0
125 -125 0 -125 0 0 -250z"/>
<path d="M6750 2375 l0 -125 125 0 125 0 0 125 0 125 -125 0 -125 0 0 -125z"/>
<path d="M9000 2125 l0 -125 125 0 125 0 0 125 0 125 -125 0 -125 0 0 -125z"/>
<path d="M9000 9875 l0 -875 875 0 875 0 0 875 0 875 -875 0 -875 0 0 -875z
m1490 0 l0 -615 -615 0 -615 0 0 615 0 615 615 0 615 0 0 -615z"/>
<path d="M9500 9875 l0 -375 375 0 375 0 0 375 0 375 -375 0 -375 0 0 -375z"/>
<path d="M5750 10375 l0 -125 125 0 125 0 0 -125 0 -125 125 0 125 0 0 -125 0
-125 125 0 125 0 0 125 0 125 -125 0 -125 0 0 250 0 250 -250 0 -250 0 0 -125z"/>
<path d="M2500 9125 l0 -125 125 0 125 0 0 125 0 125 -125 0 -125 0 0 -125z"/>
<path d="M5500 9125 l0 -125 125 0 125 0 0 125 0 125 -125 0 -125 0 0 -125z"/>
<path d="M9500 8625 l0 -125 -125 0 -125 0 0 -125 0 -125 -125 0 -125 0 0
-125 0 -125 250 0 250 0 0 125 0 125 125 0 125 0 0 -250 0 -250 125 0 125 0 0
250 0 250 250 0 250 0 0 125 0 125 125 0 125 0 0 125 0 125 -375 0 -375 0 0
-250 0 -250 -125 0 -125 0 0 250 0 250 -125 0 -125 0 0 -125z"/>
<path d="M500 7625 l0 -375 125 0 125 0 0 -125 0 -125 -125 0 -125 0 0 -375 0
-375 125 0 125 0 0 -250 0 -250 -125 0 -125 0 0 -125 0 -125 125 0 125 0 0
-125 0 -125 -125 0 -125 0 0 -250 0 -250 125 0 125 0 0 250 0 250 125 0 125 0
0 125 0 125 -125 0 -125 0 0 125 0 125 250 0 250 0 0 125 0 125 -125 0 -125 0
0 125 0 125 250 0 250 0 0 125 0 125 -125 0 -125 0 0 125 0 125 -250 0 -250 0
0 125 0 125 375 0 375 0 0 250 0 250 -125 0 -125 0 0 -125 0 -125 -125 0 -125
0 0 375 0 375 -250 0 -250 0 0 -375z"/>
<path d="M10250 7875 l0 -125 125 0 125 0 0 -375 0 -375 125 0 125 0 0 500 0
500 -250 0 -250 0 0 -125z"/>
<path d="M10500 5625 l0 -125 125 0 125 0 0 125 0 125 -125 0 -125 0 0 -125z"/>
<path d="M500 1375 l0 -875 875 0 875 0 0 875 0 875 -875 0 -875 0 0 -875z
m1490 0 l0 -615 -615 0 -615 0 0 615 0 615 615 0 615 0 0 -615z"/>
<path d="M1000 1375 l0 -375 375 0 375 0 0 375 0 375 -375 0 -375 0 0 -375z"/>
<path d="M10500 1875 l0 -125 -125 0 -125 0 0 -125 0 -125 125 0 125 0 0 -375
0 -375 125 0 125 0 0 375 0 375 -125 0 -125 0 0 125 0 125 125 0 125 0 0 125
0 125 -125 0 -125 0 0 -125z"/>
<path d="M8500 1125 l0 -125 125 0 125 0 0 -125 0 -125 -250 0 -250 0 0 -125
0 -125 250 0 250 0 0 125 0 125 125 0 125 0 0 -125 0 -125 125 0 125 0 0 125
0 125 125 0 125 0 0 125 0 125 125 0 125 0 0 -125 0 -125 250 0 250 0 0 125 0
125 -250 0 -250 0 0 125 0 125 -250 0 -250 0 0 -250 0 -250 -125 0 -125 0 0
125 0 125 -125 0 -125 0 0 125 0 125 -125 0 -125 0 0 -125z"/>
</g>
</svg>
